<svg width="99" height="19" viewBox="0 0 99 19" fill="none" xmlns="http://www.w3.org/2000/svg">
<path fill-rule="evenodd" clip-rule="evenodd" d="M9.0383 13.8398L3.72572 16.91L5.0295 10.9524L0.442366 6.89238L6.56072 6.28063L9.0383 0.701172L11.5159 6.28063L17.6342 6.89238L13.0471 10.9524L14.3509 16.91L9.0383 13.8398Z" fill="#965EFB"/>
<path fill-rule="evenodd" clip-rule="evenodd" d="M29.1164 13.8398L23.8038 16.91L25.1076 10.9524L20.5205 6.89238L26.6388 6.28063L29.1164 0.701172L31.594 6.28063L37.7124 6.89238L33.1252 10.9524L34.429 16.91L29.1164 13.8398Z" fill="#965EFB"/>
<path fill-rule="evenodd" clip-rule="evenodd" d="M49.1906 13.8398L43.8781 16.91L45.1818 10.9524L40.5947 6.89238L46.7131 6.28063L49.1906 0.701172L51.6682 6.28063L57.7866 6.89238L53.1994 10.9524L54.5032 16.91L49.1906 13.8398Z" fill="#965EFB"/>
<path fill-rule="evenodd" clip-rule="evenodd" d="M69.2688 13.8398L63.9562 16.91L65.26 10.9524L60.6728 6.89238L66.7912 6.28063L69.2688 0.701172L71.7463 6.28063L77.8647 6.89238L73.2776 10.9524L74.5813 16.91L69.2688 13.8398Z" fill="#965EFB"/>
<path fill-rule="evenodd" clip-rule="evenodd" d="M89.343 13.8398L84.0304 16.91L85.3342 10.9524L80.7471 6.89238L86.8654 6.28063L89.343 0.701172L91.8206 6.28063L97.9389 6.89238L93.3518 10.9524L94.6556 16.91L89.343 13.8398Z" fill="#965EFB"/>
</svg>
